# xmcd CD database file
#
# Track frame offsets:
#	150
#	15704
#	31831
#	54863
#	85606
#	102908
#	135558
#	167497
#	182698
#	195401
#	209544
#	222618
#	240542
#	256991
#	279507
#	289469
#	310767
#	323138
#	336629
#
# Disc length: 4756 seconds
#
# Revision: 0
# Processed by: cddbd v1.5.2PL0 Copyright (c) Steve Scherf et al.
# Submitted via: CDex 1.51
#
DISCID=13129213
DTITLE=Joe Bonamassa - Favorites
DYEAR=2009
DGENRE=Blues
TTITLE0=Ball Peen Hammer
TTITLE1=You Upset Me Baby
TTITLE2=Bridge To Better Days
TTITLE3=Burning Hell
TTITLE4=Travellin' South
TTITLE5=Last Kiss
TTITLE6=So Many Roads
TTITLE7=I Don't Believe
TTITLE8=So, It's Like That
TTITLE9=Lonesome Road Blues
TTITLE10=Revenge Of The 10 Gallon Hat
TTITLE11=As The Crow Flies
TTITLE12=Wild About You Baby
TTITLE13=Funkier Than A Mosquito's Tweeter
TTITLE14=Jelly Roll
TTITLE15=Takin' The Hit
TTITLE16=When The Sun Goes Down
TTITLE17=Your Funeral And My Trial
TTITLE18=Torn Down
EXTD=YEAR: 2009
EXTT0=
EXTT1=
EXTT2=
EXTT3=
EXTT4=
EXTT5=
EXTT6=
EXTT7=
EXTT8=
EXTT9=
EXTT10=
EXTT11=
EXTT12=
EXTT13=
EXTT14=
EXTT15=
EXTT16=
EXTT17=
EXTT18=
PLAYORDER=
